# xmcd
# 
# Track frame offsets:
#     150
#     12661
#     29437
#     41583
#     56731
#     73863
#     90795
#     106147
#     122508
#     135049
#     153039
#     170745
#     185897
# 
# Disc length: 2697
# 
# Revision: 3
# Processed by: cddbd v1.5.2PL0 Copyright (c) Steve Scherf et al.
# Submitted via: fre:ac v1.0.31
# 
DISCID=a50a870d
DTITLE=3 doors down - us and the night
DYEAR=0
DGENRE=Rock
TTITLE0=The Broken
TTITLE1=In the Dark
TTITLE2=Still Alive
TTITLE3=Believeit
TTITLE4=Living in your Hell
TTITLE5=Inside of me
TTITLE6=I don't wanna know
TTITLE7=Pieces of me
TTITLE8=Love is a Lie
TTITLE9=Us and the Night
TTITLE10=Fell from the Moon
TTITLE11=Found me there
TTITLE12=Walk before you run
EXTD=
EXTT0=
EXTT1=
EXTT2=
EXTT3=
EXTT4=
EXTT5=
EXTT6=
EXTT7=
EXTT8=
EXTT9=
EXTT10=
EXTT11=
EXTT12=
PLAYORDER=
